<?xml version="1.0" ?><!DOCTYPE svg  PUBLIC '-//W3C//DTD SVG 1.1//EN'  'http://www.w3.org/Graphics/SVG/1.1/DTD/svg11.dtd'><svg enable-background="new 0 0 512 512" height="512px" id="Calque_1" version="1.1" viewBox="0 0 512 512" width="512px" xml:space="preserve" xmlns="http://www.w3.org/2000/svg" xmlns:xlink="http://www.w3.org/1999/xlink"><g><path d="M437.768,278.07c1.971-2.049,3.942-3.582,3.285-2.728c3.826-4.359,4.218-4.144,4.231-5.189   c2.374-2.881,5.527-5.332,2.748-2.135l7.259-7.89l-4.609,4.449c0.658-1.36,5.169-5.253,7.268-7.65   c0.417,0.539,0.834,1.079,1.214,1.57l-1.373-0.902l-0.253-0.165l0,0l-0.002-0.003l0.023-0.047l0.052-0.104   c0.035-0.07,0.075-0.152,0.09-0.191c0.039-0.098,0.071-0.186,0.092-0.273c0.041-0.178,0.041-0.315,0.033-0.462   c-0.075,0.181-0.128,0.315-0.211,0.468l-0.13,0.224l-0.098,0.164l-0.043,0.071c-0.007,0.011-0.017,0.027-0.014,0.021l0.001-0.001   l1.832,1.2l-1.389-1.745l-6.949,7.021l0.268-0.552c-1.714,2.02-5.404,5.582-6.729,6.786c0.129-0.271-0.112-0.258,1.32-1.717   c-9.932,9.866-1.916,3.417-9.987,11.773C436.201,279.54,436.845,278.908,437.768,278.07z" fill="#202020"/><path d="M428.31,285.429l-2.915,3.99l-5.932,5.654c0.119,0.252-3.95,4.621-0.93,1.928   c0.529-0.588,1.578-1.747,2.487-2.622c-0.245,1.048-7.504,7.903-5.396,6.607c4.476-4.688,5.267-5.303,7.761-8.448   c4.237-4.163,7.389-7.13,9.496-8.943c1.186-1.308,1.115-1.729,2.649-3.362c-0.345,0.355-0.662,0.682-1.06,1.091l-0.774-0.433   c-1.194,1.448-2.503,2.638-3.956,4.115l6.076-7.485c-2.751,1.622-9.082,8.616-11.979,11.044   C427.649,285.771,421.461,291.446,428.31,285.429z" fill="#202020"/><path d="M435.531,280.233c0.044-0.045,0.115-0.117,0.166-0.168C435.647,280.116,435.575,280.188,435.531,280.233z" fill="#202020"/><path d="M172.3,248.586c2.039-0.015,2.64-0.217,2.934-0.318l-22.957,0.016c0.719,0.224,7.332,0.501,2.913,0.635   c1.971,0.248,7.973,0.036,8.843-0.267l-1.664,0.342c5.289-0.438,8.902,0.422,5.453,0.681l0.446-0.004l14.65-1.685   C177.54,247.887,178.776,248.566,172.3,248.586z" fill="#202020"/><path d="M441.196,231.619c-2.158-2.048-2.474-2.25-2.294-1.952C439.699,230.377,440.467,231.042,441.196,231.619z" fill="#202020"/><path d="M186.343,247.59l4.589-0.527C189.094,247.205,187.48,247.395,186.343,247.59z" fill="#202020"/><path d="M154.552,255.61c-0.009,0.028-0.059,0.053,0.062,0.09l2.061-0.27c-0.031,0-0.04,0-0.053,0   C155.863,255.496,155.181,255.555,154.552,255.61z" fill="#202020"/><path d="M290.509,245.61c0.493-0.012,0.917-0.022,1.506-0.037C291.467,245.576,290.971,245.591,290.509,245.61z" fill="#202020"/><path d="M92.361,258.623l10.207-0.507c-1.36,0.239,3.563,0.168,1.413,0.448c0.778-0.039,4.425-0.134,3.43-0.258   l-2.082,0.016c5.382-0.699,2.123-0.968,11.046-1.5c-5.541-0.416-7.97-0.035-10.904,0.283c-0.995,0.035-1.829,0.065-2.671,0.096   l-8.487,0.979L92.361,258.623z" fill="#202020"/><path d="M405.405,208.755l0.117,0.041C405.436,208.737,405.41,208.737,405.405,208.755z" fill="#202020"/><path d="M405.995,208.953l-0.474-0.157C405.989,209.104,407.55,210.514,405.995,208.953z" fill="#202020"/><path d="M184.657,248.043c0.14-0.13,0.728-0.289,1.686-0.453l-3.424,0.396   C183.405,248.002,184.047,248.023,184.657,248.043z" fill="#202020"/><path d="M176.867,249.571l-8.599,0.1l-3.17,0.363C168.39,249.896,172.238,249.802,176.867,249.571z" fill="#202020"/><path d="M276.928,245.198c17.811-0.107-4.375,0.823,3.809,1.021c4.945-0.097,6.689-0.487,9.772-0.61   c-14.126,0.334,1.915-1.287-12.332-1.08c2.026-0.707,10.274-0.771,15.108-0.579c5.472,0.681-4.781,0.499-6.021,1.167   c5.717-0.111,4.71-0.235,7.136-0.615c8.977,0.158,18.573-0.837,23.934,0.107c6.497-0.15,6.07-0.476,9.807-0.835   c0.744-0.729-9.664-0.383-12.072-0.957c0.499,0.062,1.473,0.185,1.19,0.287l-5.618-0.153c5.333,0.254-0.74,0.729-3.591,0.786   c-2.073,0.015-6.194,0.047-5.627-0.154l3.139-0.157c-4.04-0.23-8.914,0.532-13.181,0.137c-0.224-0.164,1.391-0.241,1.636-0.342   c-4.781,0.498-9.392,0.469-16.469,0.821l4.103-0.723c-5.661,0.8-18.479,0.573-27.363,0.15c0.985,0.123,2.761,0.208,1.695,0.348   c-5.218,0.173-9.159-0.323-6.742-0.704c-5.097,0.6-19.422-0.505-26.369,0.274l-31.94,3.675c1.196-0.092,2.476-0.167,3.796-0.199   c2.903,0.635,4.468,0.558-0.62,1.156c4.995-0.336,3.086-0.846,10.591-0.872c-2.944,0.319-3.688,1.048,3.501,1.123   c17.972-0.634,29.882-2.439,46.667-3.361c0.62,0.489,13.797,0.352,20.203,0.467c-2.445,0.525-7.198,0.675-12.131,0.781   c3.096,0.018,8.425,0.048,12.378,0.07L276.928,245.198z" fill="#202020"/><path d="M235.197,246.842c0.45,0.044,0.914,0.068,1.392,0.091C236.334,246.893,235.919,246.862,235.197,246.842z" fill="#202020"/><path d="M261.436,246.143c-0.063,0.019-0.04,0.033-0.063,0.053c0.518-0.012,1.035-0.025,1.565-0.038   C262.408,246.153,261.811,246.147,261.436,246.143z" fill="#202020"/><path d="M188.868,249.148c-1.069,0.117-1.853,0.203-2.922,0.319c0.658-0.037,1.481-0.083,2.274-0.128   C188.976,249.274,189.336,249.207,188.868,249.148z" fill="#202020"/><path d="M185.274,248.287l0.57-0.201c-0.458-0.017-0.781-0.028-1.187-0.043   C184.533,248.152,184.666,248.242,185.274,248.287z" fill="#202020"/><path d="M344.988,249.621l1.707-0.106C345.666,249.524,345.223,249.567,344.988,249.621z" fill="#202020"/><path d="M296.768,246.029c-6.193,0.047-0.74,0.73-9.503,0.733l2.572,0.044c-6.287,0.313-17.337,0.169-24.808,0.194   c0.843-0.291-4.529-0.354-3.656-0.805c-5.106,0.106-10.163,0.207-12.793,0.672c-3.164-0.152-7.969,0.258-11.991,0.065   c1.698,0.273-5.726,0.924,4.062,0.59c-0.79,0.037-0.294,0.1-1.075,0.138c6.306,0.381,8.834-0.265,14.266-0.274   c3.247,0.269-5.311,0.435-2.247,0.543c6.783-0.251,21.284,0.325,20.834-0.69c4.937-0.071,5.618,0.152,7.09,0.338   c7.809-1.081,28.978,0.464,28.906-0.918c-2.851,0.055-7.495,0.025-11.679,0.321L296.768,246.029z" fill="#202020"/><path d="M199.27,249.076c0.381,0.004,0.889,0.01,1.205,0.014C200.118,249.086,199.676,249.081,199.27,249.076z" fill="#202020"/><path d="M121.106,245.073l2.59-0.903c14.749-0.216,20.082,0.038,32.978,0.002c0.985,0.124-0.58,0.202-1.373,0.242   c9.066-0.104,22.632,0.085,29.231-0.33c2.885,0.007,10.458,0.294,7.591,0.56c1.404-0.08,3.009-0.157,4.623-0.128   c0.428,0.324-3.613,0.093-3.706,0.358c1.28,0.022,1.778,0.085,2.073-0.018c-2.153,0.279,2.234,1.102-7.808,1.081   c-3.889-0.759,6.965-0.088,4.669-0.925c-3.331-0.006-2.944,0.318-3.229,0.42c-4.245-0.019-4.133-0.229-3.907-0.42   c-1.626,0.26-6.965-0.102-9.212,0.292c-8.254,0.065,0.45-0.628-4.942-0.619l-3.108,0.848l-8.964-0.16   c-12.977,0.298,1.856,1.465-12.977,1.944c1.949-0.442-4-1.186-10.904-1.362c4.13-0.031,11.765-0.584,17.098-0.332   c-7.517-0.664,10.346-0.08,6.445-0.84c-3.715,0.359-9.909,0.408-14.74,0.214l1.583-0.078c-5.138-0.09-9.026,0.797-16.116,0.458   c-3.523,0.027-2.863-0.212-2.243-0.41C123.78,245.094,121.115,245.26,121.106,245.073z M128.781,244.895l4.713,0.084   C132.375,244.839,130.618,244.844,128.781,244.895z" fill="#202020"/><path d="M381.779,332.116c0.347-0.315,0.746-0.678,1.061-0.964C382.59,331.345,382.194,331.717,381.779,332.116z" fill="#202020"/><path d="M146.887,256.801l2.73,0.028C148.552,256.801,147.677,256.797,146.887,256.801z" fill="#202020"/><path d="M208.155,254.001l3.988-0.198C210.569,253.816,209.335,253.895,208.155,254.001z" fill="#202020"/><path d="M384.5,326.294l0.099-0.09c0.146-0.169,0.259-0.299,0.413-0.477L384.5,326.294z" fill="#202020"/><path d="M331.036,255.985c0.607,0.071,1.289,0.136,2.222,0.187C333.147,256.087,332.317,256.027,331.036,255.985z" fill="#202020"/><path d="M207.42,254.038c0.103,0.007,0.161,0.01,0.242,0.016c0.155-0.017,0.326-0.035,0.493-0.053L207.42,254.038z" fill="#202020"/><path d="M119.899,254.329c-0.585,0.028-1.118,0.054-1.748,0.084C118.976,254.397,119.481,254.365,119.899,254.329z" fill="#202020"/><path d="M123.747,256.732c-0.629,0.021-1.23,0.047-1.698,0.084L123.747,256.732z" fill="#202020"/><path d="M66.33,256.916l3.675-0.123C68.198,256.806,67.12,256.854,66.33,256.916z" fill="#202020"/><path d="M114.021,256.177c-0.214,0.039-0.428,0.077-0.57,0.115C113.959,256.266,114.201,256.216,114.021,256.177z" fill="#202020"/><path d="M400.078,317.388c-0.059,0.061-0.121,0.125-0.155,0.16l0.004,0.136L400.078,317.388z" fill="#202020"/><path d="M405.525,310.197c0.729-0.761,1.487-1.554,2.233-2.333C406.906,308.709,406.099,309.553,405.525,310.197z" fill="#202020"/><path d="M384.421,257.347c0.973,0.123,3.257,0.27,2.19,0.41C388.474,257.58,388.35,257.151,384.421,257.347z" fill="#202020"/><path d="M391.16,333.808c0.334-0.495,0.786-1.072,1.243-1.65C391.529,333.208,390.757,334.123,391.16,333.808z" fill="#202020"/><path d="M392.404,332.158c0.43-0.521,0.889-1.077,1.273-1.544C393.22,331.148,392.79,331.669,392.404,332.158z" fill="#202020"/><path d="M359.667,264.383c-0.242-0.059-0.617-0.105-1.125-0.121C358.691,264.377,359.097,264.401,359.667,264.383z" fill="#202020"/><path d="M409.698,306.116c0.268-0.553,9.884-10.79,1.461-2.514c-0.122-0.767,5.151-5.563,7.268-7.899   c-1.722,1.513,0.519-1.089-0.131-0.757c-1.051,1.157-2.235,2.598-4.093,4.392c-1.042,0.636,1.59-2.271,3.828-4.358   c-2.899,2.43,3.028-3.733-0.923-0.143c-7.903,8.218-13.438,14.076-18.457,20.394c4.487-4.701,9.495-9.974,13.442-13.563   l-1.199,1.969c-4.598,3.921-6.975,6.803-11.199,10.956l9.614-9.206c4.729-4.088,1.854-1.065-1.552,2.479   C408.617,307.014,409.413,306.264,409.698,306.116z" fill="#202020"/><path d="M406.733,315.832l0.169-0.146c0.124-0.152,0.286-0.332,0.357-0.436L406.733,315.832z" fill="#202020"/><path d="M65.652,245.906l1.143-0.206C65.841,245.793,65.546,245.858,65.652,245.906z" fill="#202020"/><path d="M399.257,319.582l0.006-0.007C399.203,319.643,399.189,319.658,399.257,319.582z" fill="#202020"/><path d="M58.47,266.135c-0.04,0.015-0.081,0.031-0.151,0.047C58.421,266.166,58.421,266.149,58.47,266.135z" fill="#202020"/><path d="M66.074,254.406c-0.053-0.025-0.068-0.049-0.192-0.074C65.275,254.362,65.57,254.387,66.074,254.406z" fill="#202020"/><path d="M58.492,266.084c0,0.018,0.019,0.033-0.022,0.051C58.492,266.117,58.542,266.099,58.492,266.084z" fill="#202020"/><path d="M196.799,264.088c0,0-0.437-0.094-1.125-0.184C195.407,263.955,195.674,264.013,196.799,264.088z" fill="#202020"/><path d="M169.497,263.282c-0.173-0.021-0.276-0.033-0.499-0.06L169.497,263.282z" fill="#202020"/><path d="M377.964,254.898c-1.352-0.008-2.364,0.006-3.22,0.029C375.73,254.941,376.796,254.939,377.964,254.898z" fill="#202020"/><path d="M58.319,266.181c-0.285,0.059-0.691,0.117-1.36,0.191C57.696,266.295,58.087,266.234,58.319,266.181z" fill="#202020"/><path d="M238.425,261.34c-0.292,0.021-0.564,0.039-0.84,0.059c0.167,0.01,0.334,0.019,0.499,0.027L238.425,261.34z" fill="#202020"/><path d="M252.672,261.74c-0.487,0.061-0.71,0.125-0.982,0.182c5.084-0.227,14.426,0.02,15.533-0.56   c-1.726,0.015-10.671-0.325-9.146-0.665c-3.545,0.145-8.785-0.261-10.693-0.166c5.819,0.316,0.629,0.488-3.3,0.684   c-3.573-0.168,0.672-0.465-2.404-0.572l-8.267,0.064l7.201,0.076l-2.188,0.557c0.266-0.02,0.449-0.033,0.734-0.053   C251.342,261.027,240.194,262.101,252.672,261.74z" fill="#202020"/><path d="M251.689,261.922c-0.762,0.035-1.432,0.077-1.952,0.137C250.886,262.049,251.333,261.992,251.689,261.922z" fill="#202020"/><path d="M301.464,262.84c0.626-0.026,1.304-0.054,2.156-0.089C303.214,262.767,302.273,262.806,301.464,262.84z" fill="#202020"/><path d="M158.989,249.942c-0.213-0.164-7.313-0.502-7.186-0.074c2.107,0.044,4.229,0.089,6.361,0.134   L158.989,249.942z" fill="#202020"/><path d="M438.053,260.351c-0.848-0.003-1.699-0.007-2.551-0.01c-0.213,0.024-0.418,0.048-0.578,0.066   C435.365,260.47,437.133,260.392,438.053,260.351z" fill="#202020"/><path d="M260.269,260.496c-1.301,0.066-1.881,0.133-2.193,0.201C258.918,260.664,259.696,260.608,260.269,260.496z" fill="#202020"/><path d="M436.913,261.369c0.777,0.123,1.808,0.309,1.673,0.473c1.34,0.002,2.649-0.116,4.127-0.212   c-0.236,0.286-0.502,0.597-0.827,0.952c0.314-0.326,0.64-0.662,0.98-1.017C440.99,261.578,439.075,261.519,436.913,261.369z" fill="#202020"/><path d="M441.791,262.687c0.033-0.036,0.065-0.073,0.095-0.105L441.791,262.687z" fill="#202020"/><path d="M163.212,250.123c0.61-0.029,1.239-0.059,1.887-0.09l-0.982,0.114c1.633,0.043,3.256,0.086,4.883,0.13   c0.589-0.02,1.227-0.042,2.011-0.068c-0.316,0.015-0.561,0.061-0.712,0.107c0.53,0.017,1.047,0.033,1.564,0.05   c3.889-0.443,13.565-0.767,16.357-1.027c3.693-0.189,8.214-0.297,11.049-0.263c-2.627-0.009-6.117,0.08-5.069,0.325   c5.336,0.255,7.929,0.99,17.138,0.358l-5.401,0.01l12.143-0.951c4.254,0.394-6.061,0.474-7.746,0.817   c9.444-0.469,17.299,0.783,21.677-0.04c0.617,0.488,1.651,1.303,7.849,1.254c-4.468-0.557,3.715-0.358,0.049-0.954   c2.141-0.279,6.913,0.176,7.27-0.189l-0.58,0.202c10.581,0.773,14.046-0.438,18.572-0.837c12.67-0.199,18.489,0.117,28.823,0.035   c0.405,0.327,3.219,1.227,7.365,1.192c1.927-0.442,11.278-0.647,12.232-1.215c-7.411-0.236-6.063,0.476-10.501,0.608   c-3.693-0.595-0.334-0.588-5.379-0.943c4.071,0.231,18.396-0.31,22.854,0.248l-1.573,0.078c7.117,0.339,8.478,1.741,20.335,0.893   l5.658-0.348c-0.272,0.057-0.304,0.123-0.449,0.174c9.262,0.059,6.733,0.704,16.958,0.195c-0.79,0.039-0.294,0.102-1.097,0.14   c5.828,0.318,11.706-0.321,16.112-0.455c2.689,0.473-0.638,0.465-2.302,0.808c10.253,0.183,21.317-0.628,27.686-1.205l6.608,0.277   c-3.919,0.195-8.71,0.694-7.514,0.979c3.635-0.095,2.932-0.318,8.072-0.228c-0.877,0.303-3.034,0.584-5.451,0.965   c10.632,0.506,2.377-1.072,9.816-0.145c3.34,0.006,5.28-0.436,5.646-0.801l6.035,0.478c0.676-0.465,7.454-0.492,11.787-0.562   c0.1-0.1-0.996-0.224-2.227-0.301c-1.237-0.077-2.622-0.105-3.341-0.016c-0.012-0.183,1.026-0.317,2.349-0.405   c1.328-0.087,2.963-0.129,4.317-0.125c0.62,0.204,1.783,0.316,3.277,0.377c-1.498-1.661-4.425-4.489-6.456-6.542   c-2.026-2.048-3.367-3.53-1.876-2.682c-2.629-2.539-5.524-5.335-8.496-8.206c-3.048-2.967-6.175-6.011-9.187-8.943   c-6.026-5.863-11.607-11.266-15.263-14.633c-2.125-2.506-6.835-7.236-3.683-4.731c-8.562-8.567-13.687-12.277-21.999-20.966   c-0.617-0.79,3.849,3.837,3.776,3.305c-1.458-1.32-2.801-2.63-4.132-3.985c-0.331-0.34-0.663-0.682-0.998-1.025   c-0.351-0.345-0.777-0.858-1.059-1.365c-0.595-1.039-0.879-2.276-0.769-3.515c0.168-2.479,2.143-4.987,5.037-5.428   c1.414-0.23,3,0.06,4.321,0.969c0.326,0.22,0.66,0.512,0.911,0.765c0.249,0.245,0.502,0.493,0.759,0.745   c0.517,0.5,1.048,1.014,1.596,1.544c-1.463-1.438-2.027-1.719-2.301-1.848c-0.037-0.266,3.769,3.294,6.11,5.414   c1.193,1.313-1.753-1.587-1.137-0.796c16.318,16.989,29.944,28.739,46.478,45.333c-4.721-4.739-6.966-6.07-7.203-5.934l4.625,4.642   c2.015,1.558,5.493,5.038,8.573,7.777c0.271,0.442,1.595,1.95,0.043,0.614c4.346,4.808,8.129,8.174,12.198,11.77   c2.034,1.798,4.141,3.653,6.425,5.775c1.142,1.061,2.328,2.188,3.572,3.409l0.233,0.23l0.059,0.058l0.008,0.007l0.23,0.283   l0.021,0.032l0.032,0.049l0.1,0.158l0.379,0.621l0.194,0.353l0.106,0.208l0.063,0.137l0.03,0.069l0.077,0.215   c0.068,0.226,0.137,0.454,0.206,0.684c0.348,1.373,0.247,2.65-0.197,3.819c0,0,0.013-0.06,0.038-0.17   c0.028-0.146,0.103-0.323,0.177-0.826c0.01-0.097,0.039-0.359,0.048-0.571c0.008-0.219,0.009-0.428-0.009-0.707   c-0.013-0.128-0.047-0.521-0.098-0.753c-0.022-0.134-0.058-0.267-0.089-0.405c-0.057-0.235-0.102-0.336-0.143-0.456   c-0.042-0.111-0.085-0.224-0.129-0.339l-0.063-0.161l-0.085-0.224l-0.066-0.133c-0.087-0.166-0.164-0.288-0.237-0.405   c-0.08-0.121-0.16-0.243-0.241-0.367l-0.236-0.335l-0.125-0.175l-0.079-0.111c-0.351-0.427-0.1-0.121-0.18-0.217l-0.005-0.004   l-0.009-0.008l-0.02-0.017l-0.038-0.033c-0.205-0.179-0.414-0.361-0.626-0.546c-0.85-0.742-1.757-1.534-2.663-2.325   c-3.627-3.166-7.253-6.332-7.253-6.332l3.04,3.682l-6.392-5.553c3.314,3.82,7.001,6.338,7.083,7.114   c-0.851-0.656-2.636-2.503-2.88-2.374c3.289,3.56,3.817,3.571,6.458,6.079c-7.487-6.079-20.775-19.389-28.106-26.375   c-1.182-1.071,1.134,0.794,1.405,0.922c-2.944-2.897-4.478-4.87-8.276-8.424c-2.581-1.985,1.522,1.961,3.304,3.804   c-0.509,0.009-1.404-0.917-3.462-2.896c-0.093-0.784-10.955-11.2-13.135-14.222c-10.891-10.673,0.831,2.618-9.545-8.057   l-2.749-3.539c-3.208-2.902-6.855-6.262-10.555-9.771c-1.85-1.754-3.712-3.546-5.539-5.336c-0.862-0.847-1.72-1.689-2.567-2.522   c-0.414-0.35-1.009-0.565-1.582-0.547c0,0,0.243-0.019,0.484,0.019c0.243,0.03,0.47,0.116,0.47,0.116   c0.343,0.016,0.307-0.106,0.077-0.289c-0.226-0.18-0.671-0.326-0.964-0.374c-0.533-0.024-1.067,0.119-1.509,0.395   c-0.234,0.146-0.396,0.28-0.624,0.526c-0.126,0.14-0.303,0.391-0.404,0.603c-0.453,0.904-0.335,1.987,0.135,2.72   c0.114,0.187,0.249,0.357,0.4,0.509c0.252,0.246,0.5,0.487,0.744,0.725c0.521,0.521,1.025,1.025,1.509,1.508   c0.954,0.98,1.797,1.912,2.489,2.802c6.38,5.54,16.626,15.165,23.657,21.762c1.317,2.359-9.331-8.447-12.491-10.957l6.205,6.201   c-3.842-3.827-5.554-5.143-8.148-7.145c5.34,5.532,7.583,6.865,12.868,11.886c-0.543-0.259,0.059,0.516,2.432,2.897l1.021,0.329   c0.016,0.072,0.252,0.361,0.964,1.117l9.381,8.958c-1.798-2.094-1.591-2.488-3.955-4.861c0.644,1.047-1.405-0.922-3.771-3.298   c2.303,1.852-2.121-2.502-1.884-2.638c4.743,4.762,10.628,10.554,13.839,13.575l0.693,1.331c2.225,2.305,4.576,4.608,6.745,6.731   c1.081,1.064,2.117,2.083,3.076,3.027c0.474,0.477,0.929,0.935,1.361,1.37c0.504,0.52,0.98,1.013,1.427,1.474   c0,0-0.379-0.294-0.758-0.589c-0.35-0.265-0.587-0.417-0.602-0.432c6.293,6.472,13.634,13.482,18.965,19.237   c-0.848-0.032-1.678-0.063-2.501-0.095c-3.97,0.257-8.908,0.493-13.956,0.732c-4.863,0.239-10.893,0.48-12.998,0.75   c-2.996,0.582-20.113-0.729-27.841,0.089c-0.521-0.063,5.308-0.438,7.945-0.657c-5.141-0.09-9.228,0.633-10.839,0.021   c11.535,0.206-0.62-0.488,4.576-0.662c-5.4,0.011-11.096,0.122-13.745,0.34c8.741-0.005-3.104,0.846,5.745,0.579   c-6.857,0.515-16.215,0.72-24.386,0.521c0.08-0.264-0.927-0.387-3.973-0.496l-2.457,0.383c-3.823-0.069,7.394-0.453-0.304-0.589   c-7.92,0.655-23.85-0.372-27.316,0.839c-6.036-0.478,11.486-0.484,2.389-1.07c5.293-0.438,12.593,0.063,14.337-0.541   c-5.187,0.172-1.893-0.511-5.239-0.517l-5.785,0.373l1.279,0.023c-9.707,0.571-25.088,0.297-37.485,0.394   c-10.501,0.609-17.73,1.489-30.325,1.423c3.718-0.357-10.461-0.344-2.532-0.999c-5.828-0.315-11.582,0.058-11.697,0.322   c5.128,0.091,1.803,0.085,6.123,0.215c-2.915,0.32-9.636,0.306-12.397,0.097c1.28,0.023,0.793-0.038,1.075-0.139   c-6.123-0.215-2.935,0.318-7.359,0.452c-1.404-0.448-9.77-0.12-13.811-0.352l-5.859,0.639c3.22-0.42-5.614-0.153-6.538-0.54   c-4.202,0.296-7.725,0.816-14.123,0.703c2.643-0.219-5.838-0.316-5.949-0.742c-10.957-0.408-18.145,1.162-28.522,0.552   c0.322-0.1,2.417-0.38-0.617-0.487c-2.389,0.119-6.572,0.069-9.128,0.115l0.081-0.012c-0.049,0.004-0.081,0.007-0.133,0.012   c-1.252,0.023-2.039,0.076-2.07,0.179c-4.375,0.417-6.631,0.844-15.242,1.197c0.632,0.488,7.901,0.299,11.049,0.143l2.721-0.482   c2.6,0.736,7.765-0.128,9.745,0.121c-5.165,0.863-20.041,0.65-28.965,1.182c5.441,0.68,17.277,0.785,27.605,0.703l-4.549-0.293   l5.404-0.009l-5.23-0.519c5.119,0.09,9.544-0.043,14.17-0.014c-5.417,0.01-7.526-0.662-4.462-0.557   c6.036,0.479,6.29-0.313,10.904-0.283c-2.569-0.044-5.909-0.053-3.755-0.332c9.097,0.585,11.554,0.205,19.827,0.83   c-1.025-0.813,10.337-0.08,11.576-0.747l-3.839-0.068l8.143-0.492c7.514,0.662-6.653,0.676,4.781,1.145   c10.551,0.082,10.278-0.773,18.573-0.836c-2.733,0.482-9.311,0.895-16.004,0.881l4.053,0.232   c-2.144,0.279-11.402,0.221-16.022,0.192c7.635-0.554-3.573-0.17-7.046-0.603c-0.639,0.467,4.263,0.393-1.524,0.768   c5.422-0.01,6.215-0.049,13.113,0.127c-14.91-0.211-13.407,1.619-26.421,1.227c5.999-0.211-2.091-0.672-2.813-0.898   c-2.823,0.057-8.549,0.167-10.904,0.283l2.132,0.674c-7.582,0.291-10.216-1.135-18.966-0.441c-1.137,0.404,7.697,0.137,6.123,0.215   c-11.973,0.424-16.286-0.662-26.917-1.168c-0.601,0.201-0.477,0.629-4.195,0.984c1.168-0.404-1.583-0.611,2.6-0.906   c-3.554-0.172-7.765,0.125-10.901,0.283c7.399,0.236-3.027,0.58-4.391,0.822c-3.833-0.068,1.168-0.402,3.526-0.52   c-3.077-0.109-6.733-0.705-8.481-0.1c-0.121-0.426,8.602-1.119,14.306-1.23l-3.845-0.068c2.649-0.217,3.145-0.156,6.962-0.09   c-3.737-0.33-3.368-0.694-2.498-0.997c0.49,0.062-0.272,0.101,0.195,0.162c3.074,0.108,5.432-0.008,4.719-0.234   c2.764-0.572-4.264-0.357-6.346-0.643c-1.574,0.039-3.148,0.077-4.691,0.114l-15.97,1.836c-6.823,0.215-9.891-0.225-15.016-0.502   l-1.407,0.49c-5.937-0.051-11.539-0.205-7.734-0.828c0.214,0.164,0.998,0.125,2.287,0.148c0.17-0.066,0.468-0.113,0.843-0.152   c0.124-0.029,0.192-0.058,0.294-0.086c-6.358,0.167-10.327,0.271-10.693,0.281c10.795-0.713,0.54-0.892,2.346-1.763l-10.904,0.284   c6.609,0.276,0.121,0.426-2.225,0.544c-0.162-0.123-0.792-0.184-1.705-0.208c-0.457-0.003-0.984-0.006-1.56-0.01   c-0.288,0.003-0.587,0.006-0.896,0.01c-0.154,0.002-0.311,0.005-0.47,0.008l-0.239,0.004l-0.015,0h-0.008h-0.003   c0.223-0.003,0.06,0,0.108-0.001l-0.03,0.001l-0.061,0.003l-0.121,0.005c0.058,0.008-0.002,0.018-0.031,0.035   c-0.032,0.016-0.061,0.035-0.088,0.057c-0.055,0.043-0.102,0.103-0.135,0.162c-0.068,0.125-0.067,0.207-0.088,0.3l-0.099-0.036   l-0.017,0.04l-0.002,0.005l-0.001,0.003l0,0.001l0,0v0c0,0.024-0.003-0.211-0.002-0.11l-0.001,0.088l-0.002,0.164   c-0.009-0.125-0.015-0.034-0.017-0.015c0.001,0.06,0.006,0.126,0.039,0.193c0.057,0.135,0.2,0.268,0.351,0.307   c0.038,0.011,0.078,0.018,0.12,0.02l0.475-0.002c0.642-0.009,1.281-0.018,1.91-0.025c1.258-0.028,2.474-0.057,3.578-0.081   c-0.201-0.165,5.463-0.965,8.184-1.448c-7.576-0.184-3.08-0.38-3.688-0.684c0.784,0.027,2.194,0.033,2.358-0.029   c1.084-0.139-1.472-0.186-1.686-0.348c-2.013,0.051-4.041,0.103-6.001,0.153c-0.98,0.026-1.944,0.052-2.88,0.076   c-0.468,0.015-0.93,0.028-1.383,0.042c-0.227,0.007-0.452,0.015-0.674,0.022c-0.04,0.559-0.079,1.113-0.118,1.661   c-0.017,0.102-0.006,0.027,0.015,0.008c0.021-0.027,0.011-0.008-0.019,0.008c-0.028,0.018-0.048,0.016,0.003,0.008l0.023-0.003   c0.01,0.011,0.027,0.058,0.036,0.086c0.007,0.179,0.065-0.366,0.043-0.09c-0.052,0-0.082-0.004-0.103-0.006   c-0.083,0.078,0.089-0.09-0.008,0.042c0-0.019,0.062-0.087,0.021-0.047c-0.016,0.013-0.056,0.029-0.043,0.024l0.026-0.005   c0.014-0.004,0.033-0.026,0.065,0.085c0.009,0.095,0.025-0.072,0.04-0.13l0.011-0.06l0.005-0.03c0.001-0.03-0.01,0.244-0.006,0.128   h0h-0.001h-0.002h-0.023l-0.073-0.005c-0.118-0.042,0.085,0.065,0.008,0.015c-0.02-0.021-0.033-0.084-0.019-0.016   c-0.012,0.016,0.035,0.013-0.036,0.039l-0.074,0.024c-0.025,0.006,0.08,0.017,0.113,0.024l0.076,0.013l0.038,0.007l0.019,0.003   c-0.257,1.236-0.068,0.343-0.125,0.619h0.004h0.01h0.151l0.303,0.001c0.406,0.001,0.818,0.002,1.236,0.003l2.194,0.411l6.733-0.222   c-2.811,0.217-1.119,0.645-8.184,0.727c0.902,0.387,7.006-0.088,11.332,0.043l2.212-0.545c-0.852,0.303,8.406,0.361,1.828,0.775   l-10.703,0.445l2.975,0.373l-9.047,0.104l2.135-0.281c-0.909,0.019-1.72,0.035-2.447,0.05c-0.182,0.003-0.358,0.005-0.529,0.007   l-0.127,0.001l-0.063,0.001h-0.016c0.256-5.019,0.066-1.392,0.122-2.513l-0.008-0.001l-0.031-0.005   c-0.061-0.014-0.218-0.031-0.195-0.041c0.037-0.009,0.088-0.027,0.107-0.041l-0.003-0.025l-0.004-0.023   c-0.009-0.013,0.039,0.072,0.036,0.059c-0.004-0.009-0.064-0.041-0.062-0.037c-0.001-0.001-0.001,0,0.034,0.006   c0.028,0.002,0.06,0.004,0.097,0.006h0.009h0.002h0c0.002-0.058-0.005,0.129,0.006-0.129l-0.001,0.006l-0.004,0.024l-0.018,0.098   c-0.012,0.062-0.025,0.173-0.034,0.093c-0.029-0.1-0.049-0.093-0.064-0.083c-0.065,0.015,0,0,0.026-0.026   c0.013-0.011-0.003,0.001-0.02,0.032c-0.008,0.013-0.012,0.028-0.01,0.021l0.007-0.042l0.004-0.044   c0.009-0.679,0.017-1.368,0.026-2.065c4.58-0.66,9.503-0.73,18.471-0.57c-6.488,0.147-0.667,0.465-3.108,0.847   c6.619,0.275,8.853-0.269,12.286-0.525c1.686,0.348,2.885,0.633-3.027,0.582c-0.741,0.729,7.777-0.126,8.316,0.625   c19.586-0.022,15.694-2.426,38.589-1.487l-0.858,0.303c14.539-0.377,22.926-0.016,36.389-0.254l10.6,0.771   c-2.37,0.118-8.744,0.694-5.77,1.065c-5.156-0.779-10.628-0.507-16.184-0.925c-0.567,0.202,1.695,0.349,2.68,0.474   c-3.353-0.007-5.035-0.356-9.463-0.221c0.214,0.161,5.044,0.354,1.404,0.449l-6.023-0.479c-8.06,0.229-3.969,1.148-13.436,0.928   c1.76-0.428,5.354-1.047,9.02-1.149c-4.326-0.093,5.766-0.259,1.819-0.515c-6.231,0.634-9.24,0.132-17.525,0.529   c0.973-0.088,1.23-0.212,3.269-0.251l-12.022-0.268c2.975,0.371-9.931,0.407-8.812,0.958c12.813,0.229,9.047-0.104,23.648,0.208   c-4.134,0.125-9.463,0.686-11.96,1.201c-0.127-0.021-0.338-0.039-0.787-0.049c-2.231,0.545,0.043,0.692,0,1.645   c6.665-0.678,11.121-0.121,18.982-0.511c1.478-0.522-4.561-0.665-8.469-0.53l6.925-0.346l-1.363,0.241l17.578,0.174   c-3.331,0.028-4.462,0.331-6.2,0.559c2.268,0.021,4.515,0.158,6.903,0.311c-0.502-0.498-0.186-0.85,2.027-0.841   c11.31,0.118,17.596,0.565,21.77,1.135c0.434-0.012,0.923-0.024,1.317-0.035c-1.896-0.511,8.031-0.917,11.536-1.439   c-0.174,0.528,5.828,0.317,9.088,0.586c1.735-0.606-0.58-1.442-4.549-1.937c-7.647,0.554-4.285,0.559-7.898,1.344l-12.267,0.524   l2.742-0.484c-6.123-0.212-12.004,0.426-11.555-0.203c3.235-0.419,8.577-0.165,11.787-0.585l-4.05-0.23   c7.145-0.618,3.662,0.595,12.313,0.164c-3.182-0.534,0.784-0.038,4.49-0.396c-2.975-0.372-15.232,0.152-12.633-0.756   c4.499-0.396,15.136,1.064,21.089,0.162l-0.292,0.103c8.781,0.117,11.868-0.401,15.155-0.728c3.737,0.294,8.896-0.12,12.946-0.153   l-0.099,0.264l5.714-0.11c-2.721,0.481-6.696-0.013-11.604,0.057l0.61,0.491c-5.658-0.583-9.432,0.303-13.819,0.726   c6.386-0.425,18.033,0.12,19.533-0.839l3.95,0.495l1.89-0.179c2.944,0.372-0.062,0.955-5.769,1.066   c-0.992-0.124-1.487-0.186-1.187-0.288c-2.649,0.219-5.082,0.6-11.493,0.487l3.421-0.26c-7.981-0.035-15.238,0.154-17.971,0.637   c11.523,0.205,22.854,0.249,33.675,0.225c3.191-1.108,6.978-1.73,8.604-2.761c7.26-0.19,17.116-0.332,23.421,0.045l-0.579,0.203   c3.077,0.105,5.912,0.05,8.276-0.067c3.25,0.271-2.225,0.545,0.04,0.691l10.399-0.346c-0.642,0.467-9.393,0.469-13.547,0.502   c0.783-0.04,2.367-0.117,1.858-0.18c-4.833-0.192-13.838,0.603-15.951-0.072c-2.354,0.117,4.784-0.498-3.188-0.533   c-5.339-0.254-7.077,0.352-7.635,0.554c-0.087,0.265,8.378,0.362,5.441,0.681c4.155-0.033,5.81-0.374,11.124-0.119   c-4.118,0.032-9.711,0.568-11.904,0.158c-8.143,0.493-6.975,1.733-3.136,1.802c-0.914-0.389,14.854-0.479,4.177-0.986   c4.796-0.5,13.559-0.504,19.833-0.816l-0.285,0.1l7.79-0.125c-1.097,0.139-3.452,0.257-3.529,0.52l10.789-0.708   c-6.073,0.476,3.765,0.33,6.528,0.54c1.156-0.404,5.37-0.7,1.326-0.932c-4.545-0.293-2.646,0.219-6.779,0.25l5.854-0.638   l0.502,0.063l3.522-0.522c7.973,0.037-3.482,1.213,6.733,0.703l-1.329-0.711c11.827,0.105,27.016,0.905,35.373,0.577   c-2.306,0.404-3.322,1.055-0.152,1.44c-3.604-0.123-10.845-0.097-16.013-0.03c-0.995-0.125,6.457-0.841,12.071-0.688   c-2.721-1.164-14.123,0.703-14.783-0.477c-14.306-0.412-10.671,1.137-22.814,0.444c-0.167,0.527-3.451,0.257-4.09,0.722   c3.595,0.86,16.233-0.029,24.112,0.271c-0.771,0.038-2.323,0.117-2.627,0.217c5.633,0.155,7.96,0.037,11.896-0.158l-0.496-0.063   c6.876-0.515,4.254,0.393,8.301,0.625c1.568-0.078,7.195,0.074,6.29-0.313l7.328,0.5l-0.354-0.588   c4.134-0.034,5.039,0.354,8.785-0.004l0.173-0.526l-10.266-0.183c5.203-0.172,1.45-0.504,7.167-0.615   c-6.386,0.576,4.518,0.292,5.147,0.781l4.204-0.296l-1.075,0.14c3.3,0.271,3.929-0.196,7.78-0.127   c-4.542-0.293-7.517-0.664-13.305-0.29c4.214-0.296,12.57-0.624,14.622-0.642c4.425-0.221,7.514,0.181,11.653,0.24   c-7.944,0.211,2.782,1.596-13.138,1.218c0.294-0.101,1.583-0.078,2.082-0.016c-2.122-0.673-9.543,0.042-12.995,0.299   c0.89,0.388-2.721,0.483,3.399,0.698c-2.008-0.248,5.155-0.864,10.978-0.547l-1.025,0.83l8.478,0.098l-0.793,0.039   c3.188,0.533,9.045-0.104,14.882,0.211c4.214-0.297,20.383-0.061,13.426-0.929c5.24,0.519,9.838-0.142,15.555-0.253l-7.126-0.339   c8.425-0.593,5.998-0.21,12.741-1.154c0.682,0.227,2.185,0.413,0.814,0.652c5.015,0.019,10.665,0.039,16.388,0.06   c6.267-0.004,12.611-0.008,18.416-0.011c-5.578,5.646-10.304,10.548-13.159,13.795c-2.399,2.386-4.362,4.254-6.118,5.882   c-0.876,0.802-1.702,1.56-2.52,2.309l-1.153,1.042c-0.252,0.216-0.505,0.433-0.763,0.653c-2.058,1.774-4.363,3.87-8.186,7.964   c-1.585,1.749,1.847-0.752-3.563,4.32c-0.396,0.31,4.611-5.479-1.179,0.403c-3.705,4.607-10.013,9.514-15.028,15.313   c-3.018,2.692-7.91,7.707-7.235,6.318c4.604-4.44,10.929-10.915,11.732-12.062c-0.408,0.84,3.426-3.008,0.259,0.49   c7.105-6.565,4.216-4.657,10.532-10.605c0.28-0.566-3.548,2.758-4.734,4.2c-0.516-0.459,11.856-12.328,5.821-7.461   c-6.596,6.511-7.525,9.473-13.718,14.639c1.98-2.573,5.792-5.883,8.172-9.286l-4.862,4.471l-3.035,3.739l0.13-0.273   c-8.689,7.797-7.123,8.127-14.254,15.746c4.611-3.934-0.143,1.834,3.279-1.174c-4.87,4.994-8.557,8.552-9.077,8.097   c8.828-9.624,0.008-1.039,8.051-10.056c-1.574,1.226,1.318-2.744-3.819,2.285c-5.379,6.075,2.12-1.307-3.431,4.565   c-0.382,0.294-0.776,0.601-0.647,0.33c-2.374,2.881-3.157,2.974-6.057,6.433l0.656-0.852c-2.107,1.813-3.096,2.968-4.019,4.053   c-0.462,0.542-0.907,1.066-1.469,1.646c-0.28,0.29-0.59,0.593-0.944,0.92c-0.09,0.081-0.181,0.164-0.275,0.249l-0.144,0.128   l-0.019,0.017l-0.003,0.002c0.119-0.122,0.032-0.033,0.058-0.06l-0.004,0.004l-0.009,0.009l-0.037,0.033l-0.073,0.067l-0.064,0.059   l-0.003-0.004c-0.004-0.001-0.002-0.018-0.025,0.007l-0.115,0.091c0.396-0.088,0.27,0.181,0.237,0.512   c-0.061,0.348,0.107,0.853,0.416,0.95c-0.199-0.405,0.18-0.846,0.414-0.773c0.006,0.008-0.072,0.093-0.006,0.031l0.087-0.078   l0.044-0.039l0.022-0.021l0.005-0.005c0.02-0.019-0.151,0.156-0.078,0.081l0.003-0.002l0.012-0.01   c0.12-0.104,0.242-0.208,0.366-0.315c0.248-0.216,0.504-0.438,0.77-0.671c0.523-0.473,1.088-0.981,1.706-1.539   c1.223-1.129,2.631-2.483,4.311-4.178c0.528-1.102-0.123-0.767,2.51-3.677l-4.352,4.421c0.9-0.993,1.547-1.788,2.357-2.713   l4.361-4.065c-5.137,5.547-2.382,3.403-4.354,5.971c-5.014,4.763-3.955,4.112-7.122,7.093c-0.007-0.046-0.053-0.052-0.134-0.021   c-0.02,0.008-0.042,0.018-0.067,0.029l-0.019,0.009l-0.01,0.006l-0.003,0.001c-0.07,0.092,0.096-0.124,0.078-0.102l-0.001,0.001   l-0.005,0.003l-0.038,0.027c-0.042,0.026-0.144,0.105-0.165,0.108c0.017-0.025,0.061-0.115,0.042-0.116l-0.041-0.029   c-0.027-0.018-0.058-0.032-0.09-0.038c-0.132-0.039-0.308,0.136-0.268,0.37c0.005,0.014,0.007,0.032,0.015,0.048l0.004,0.014   l0.001,0.001v0.001c-0.152-0.148-0.04-0.038-0.072-0.07l0.018,0.02l0.036,0.038c0.033,0.035,0.131,0.136,0.111,0.117   c-0.018-0.015-0.037-0.028-0.059-0.039l0.011,0.021c0.01,0.015,0.018,0.031,0.028,0.044c0.039,0.057,0.093,0.112,0.167,0.153   c0.146,0.085,0.36,0.118,0.546,0.065c0.047-0.013,0.094-0.029,0.143-0.053l0.073-0.04l0.331-0.304   c0.435-0.399,0.863-0.793,1.282-1.178c0.841-0.768,1.644-1.501,2.379-2.173c-0.88,0.868-2.016,1.989-2.629,2.595   c-0.478,0.544-0.786,0.914-0.961,1.145c-0.205,0.262-0.118,0.22-0.104,0.255c-0.002,0.051,0.173-0.079,0.399-0.268   c0.223-0.193,0.517-0.448,0.847-0.735c1.302-1.164,3.115-2.877,3.249-2.896l2.77-3.189c-0.532,0.59-1.21,1.464,0.121,0.252   c3.955-4.111,3.305-4.293,7.253-8.399c0.533-0.07-2.521,3.685,0.105,1.302c1.064-0.661,4.351-2.874,9.497-8.429   c0.291-0.468,1.628-1.904,3.198-3.551c-0.211,0.236-0.482,0.525-0.567,0.643l3.807-3.302c-2.634,3.423-6.311,5.938-8.958,9.377   l0.117,0.634c-2.367,2.37-5.422,5.748-6.707,7.422c3.675-3.548,4.337-4.406,8.297-8.521c0.802-0.329-1.865,2.691-2.25,3.126   l0.389-0.815c-5.126,4.505-6.84,7.559-12.904,13.483c-0.92,0.89-0.396,0.31-0.265,0.037c-1.123,1.304-2.293,2.549-3.484,3.763   l-1.797,1.803c-0.609,0.606-1.164,1.2-1.901,1.537c-1.44,0.719-3.216,0.645-4.598-0.162c-1.393-0.793-2.391-2.269-2.591-3.956   c0,0,0.08,0.553,0.279,1.055c0.193,0.507,0.493,0.939,0.493,0.939c-0.533-0.928-0.882-2.379-0.377-3.93   c0.234-0.769,0.741-1.523,1.367-2.166c0.599-0.671,1.227-1.374,1.876-2.102c2.599-2.913,5.558-6.231,8.516-9.549l-0.096-0.196   c-0.784,0.609,1.576-1.741,2.899-2.946l-0.004,0.009c2.977-3.316,5.838-6.503,8.178-9.108c-0.881,0.701-1.969,1.637-3.151,2.777   c-0.813,1.155-6.719,6.782-5.539,6.38c-2.899,2.43-6.854,7.059-8.959,8.867c3.815-3.314-2.114,2.85-2.524,3.689   c-0.361,0.237-0.87,0.688-1.43,1.217c-0.286,0.274-0.558,0.527-0.877,0.858c-0.357,0.377-0.632,0.771-0.866,1.188   c-0.945,1.684-0.734,3.329-1.008,2.907c-0.014,0.634-0.089-0.174,0.23-1.393c0.164-0.605,0.454-1.3,0.863-1.933   c0.195-0.307,0.443-0.634,0.678-0.905c0.235-0.27,0.397-0.456,0.569-0.682c0.856-1.01,0.841-1.104,0.403-0.756   c-0.219,0.174-0.543,0.459-0.916,0.797c-0.379,0.32-0.975,0.947-1.34,1.578c-0.815,1.289-0.978,2.795-1.017,3.321   c-0.024,0.267-0.057,0.304-0.103-0.015c-0.029-0.314-0.102-1.006,0.186-2.133c-0.405,1.417-0.362,3.006,0.193,4.462   c0.275,0.728,0.685,1.415,1.194,2.021c0.259,0.306,0.539,0.579,0.822,0.818c0.344,0.291,0.645,0.5,1.003,0.709   c1.398,0.812,3.104,1.116,4.72,0.802c0.807-0.152,1.591-0.454,2.297-0.889c0.705-0.407,1.358-1.092,1.712-1.464   c3.409-3.492,6.833-7.018,9.731-10.221l-3.551,3.28c2.761-2.664,9.106-9.157,9.746-9.478c-1.977,2.055-4.337,4.405-6.849,7.051   c0.248,0.498,6.193-6.198,6.711-6.255l6.871-8.106l-3.301,3.259c1.84-2.292,8.972-8.877,14.106-13.907   c-2.405,3.427-7.655,7.682-12.799,13.234c-3.69,4.078,2.893-1.906-0.662,1.893c1.072-0.834,3.457-3.247,4.512-4.559l1.543-1.358   c-2.815,3.744-10.272,10.993-14.768,16.287c0.38-0.479,0.701-0.906,0.783-1.096c-3.948,3.589-7.769,7.424-11.32,11.221   c2.09-1.797,2.76-2.666,3.816-3.83c0.127-0.012-0.665,0.861-1.636,1.918c-0.485,0.529-1.014,1.104-1.5,1.635   c-0.251,0.277-0.491,0.543-0.709,0.784c-0.363,0.384-0.729,0.698-1.045,0.944c0.434-0.289,0.796-0.579,1.094-0.855   c0.193-0.173,0.361-0.323,0.509-0.454c0.272-0.238,0.469-0.401,0.612-0.512c0.287-0.221,0.36-0.229,0.392-0.2   c0.063,0.059-0.037,0.267,1.082-0.776c-0.528,0.585-1.04,1.134-1.553,1.67l-0.385,0.4l-0.215,0.219   c-0.122,0.117-0.241,0.237-0.37,0.349c-0.507,0.452-1.071,0.853-1.684,1.186c-2.43,1.315-5.727,1.632-8.827-0.104   c-0.759-0.51-0.914-0.738-0.813-0.711c0.108,0.018,0.503,0.251,1.001,0.467c0.989,0.474,2.382,0.697,2.08,0.448   c-1.632-0.384-2.918-1.242-3.84-2.231c-0.934-1.004-1.577-2.203-1.921-3.544c-0.333-1.341-0.394-2.846,0.054-4.493   c0.224-0.821,0.59-1.674,1.14-2.509c0.141-0.213,0.278-0.403,0.458-0.629l0.284-0.336l0.218-0.243   c0.222-0.247,0.453-0.505,0.694-0.774c-0.369,0.355-0.686,0.66-0.955,0.92c-0.037,0.031-0.2,0.21-0.291,0.313   c-0.091,0.107-0.178,0.211-0.261,0.309c-0.153,0.186-0.28,0.362-0.394,0.521c-0.44,0.64-0.625,1.006-0.706,1.088   c-0.139,0.182,0.069-0.804,1.002-2.102c0.566-0.729,0.827-0.999,1.202-1.456c0.368-0.43,0.757-0.884,1.137-1.327   c0.762-0.884,1.483-1.723,1.918-2.226l-0.928,0.896c1.455-1.994,2.907-3.469,4.346-4.414c-2.115,2.337-4.346,4.414-3.438,4.055   c1.458-1.481,2.912-2.959,4.495-4.707l-1.316,1.712l7.25-7.364c0.915-1.398,2.506-3.673,3.162-5.041   c1.972-1.534,4.229-4.157,5.809-5.904l-0.673,0.874c3.43-3.017,10.428-10.36,10.818-11.179c2.494-2.112-14.915,17.638,1.163,1.163   c6.186-6.189,3.172-4.536,6.468-8.305c0,0-0.13,0.27,0.266-0.036c2.758-2.659,2.77-3.19,4.886-5.525   c-1.727,1.52-4.085,3.868-4.744,4.725c0.53-1.101,5.665-5.614,7.515-7.914c-2.253,3.133,5.402-5.066,3.538-2.751   c0.708-0.638,1.413-1.291,2.108-1.952c0.556-0.538,1.109-1.074,1.658-1.606c0.559-0.553,1.069-1.118,1.481-1.622   c0.835-1.021,1.228-1.749,1.224-2.069c0.898-0.541,1.504-1.035,1.926-1.454c-0.614-0.003-1.431,0.077-2.23,0.127   c-0.815,0.051-1.594,0.071-2.496-0.051c0.427,0.023,1.43-0.094,1.97-0.01c1.282-0.248,0.601-0.313-0.092-0.373   c-0.648-0.06-1.325-0.113,0.59-0.34c-0.797,0.078-0.4,0.264,0.385,0.186c1.254-0.057,2.927-0.273,3.097-0.5   c0,0-0.642-0.109-1.284-0.219c-0.733-0.109-1.467-0.219-1.467-0.219l1.479-0.119c0,0-1.291-0.152-2.582-0.304   c-1.483-0.151-2.966-0.304-2.966-0.304c-0.204,0.1,0.351,0.225,0.611,0.285c-0.443-0.014-0.891-0.028-1.341-0.043   c-0.548-0.01-1.099-0.02-1.652-0.03c-1.548-0.01-3.114-0.02-4.687-0.029c-3.146,0.01-6.324,0.02-9.454,0.028   c-6.262,0.041-12.336,0.105-17.606,0.064c-1.98,1.398-25.95,0.6-34.469,1.457c2.284-0.4,3.533-1.107,2.12-1.398   c1.899-0.059,5.788-0.623,10.095-0.506c0.688,0.225,6.008,0.479,2.584,0.734c11.905-0.158-1.611-0.612,1.902-1.133   c-13.19,0.137-20.927,0.955-29.253,1.283l-0.211-0.164l-6.287,0.313c5.138,0.092,4.884,0.885-1.738,0.607l0.806-0.039   c-3.776-0.333-11.635,0.059-17.534,0.006l-4,0.459c-5.909-0.053-6.163-0.904-8.084-1.416c-9.262-0.06-14.61,0.64-21.188,1.055   c-2.975-0.371-16.847-0.459-9.497-0.91c-8.354,0.327-6.668,2.32-20.995,1.216l3.718-0.358c-13.698,0.074-33.234,0.788-39.546,0.41   c5.054-1.289-17.11-1.311-19.545-2.574c0.679,0.288-4.468,0.385-5.218,0.539c-1.128-0.148-3.006-0.293-4.998-0.031   c5.342,0.254-3.755,1.311,6.457,0.801c-5.168,0.867-11.827,1.543-23.149,1.5l0.17-0.527l8.958,0.16   c-0.905-0.389,3.706-0.359,5.596-0.539c-16.664-0.295,2.182-1.233-14.854-1.164c-1.645,0.342-0.579,0.2-5.007,0.336   c2.082-0.018,2.457-0.381-0.899-0.389l-3.222,0.422c-5.949-0.879,9.847-0.572,4.771-1.19c6.578-0.414,17.972-0.636,15.849-1.308   c-10.743-0.244-9.665,1.26-20.896,0.954l-1.196-0.286c-3.95,0.195-4.589,0.658-6.751,0.939c-0.195-0.164-1.199-0.285-3.737-0.332   c-6.671,0.678-11.099,0.811-17.253,1.549c16.379-0.555,14.002,0.516,30.908,0.021c-2.649,0.219-14.551,0.379-15.282,1.107   l0.158-0.529c-5.497,0.275-10.991,0.547-17.894,0.373l4.214-0.297c-9.15,0.367-15.21-0.801-22.43,0.076   c2.55,0.047,4.62,0.031,6.194-0.049c-4.709,0.235-10.619,0.183-15.737,0.094l-10.591,0.871c0.093-0.262-6.619-0.277-3.38-0.695   c-7.625-0.402-11.22,0.385-15.626,0.516c-7.809-0.561,6.764-0.25,7.529-0.979c-5.379-0.123-10.919-0.129-15.874-0.045   c-2.477,0.043-4.808,0.107-6.898,0.19c-1.045,0.05-2.031,0.097-2.945,0.14c-0.457,0.027-0.896,0.054-1.315,0.079   c-0.209,0.015-0.415,0.029-0.614,0.043c-0.126,0.006-0.141,0.016-0.354,0.02c-0.188,0.003-0.374,0.007-0.559-0.001   c0.674,0.039,1.261,0.073,1.761,0.103c0.407,0.031,0.742,0.057,1.006,0.077c0.526,0.052,0.765,0.106,0.709,0.17   c-0.163-0.082-1.328-0.113-2.754-0.124c-1.32,0.016-2.95-0.308-4.286-0.953c-1.363-0.636-2.493-1.57-3.274-2.479   c0,0-0.612-0.563-1.122-1.24c-0.518-0.669-0.915-1.439-0.915-1.439c-0.717-1.979-0.651-3.476-0.562-4.392   c0.114-0.923,0.275-1.303,0.311-1.228c0.048,0.075-0.015,0.609,0.017,1.528l0.007,0.177l0.002,0.045l0.002,0.143l0.002,0.012   l0.006,0.048c0.009,0.07,0.019,0.143,0.029,0.219c0.019,0.171,0.039,0.351,0.059,0.538c0.026,0.152,0.053,0.31,0.081,0.474   c0.124,0.64,0.329,1.361,0.663,2.116c-0.336-0.886-0.555-1.75-0.648-2.804l-0.036-0.58l-0.001-0.455   c0-0.121,0.004-0.243,0.012-0.365c0.023-0.488,0.087-0.982,0.188-1.473c0.396-1.967,1.438-3.861,2.979-5.256   c1.549-1.408,3.526-2.301,5.699-2.455l0.411-0.021l0.196-0.001l0.514,0.008l0.773,0.034c0.512,0.029,1.017,0.073,1.513,0.135   c-0.821,0.052-1.67,0.091-2.535,0.122l-0.441,0.017l-0.301,0.02l-0.379,0.035c-0.413,0.053-0.826,0.123-1.232,0.229   c-0.814,0.202-1.603,0.521-2.337,0.927c-1.468,0.818-2.702,2.018-3.558,3.434c-0.856,1.416-1.325,3.053-1.367,4.629   c-0.026,0.716,0.044,1.587,0.21,2.319c0.164,0.751,0.414,1.47,0.736,2.132c0.646,1.324,1.561,2.418,2.573,3.226   c2.038,1.646,4.383,2.089,5.955,2.011c-1.602,0.02-3.129-0.384-4.397-1.049c-1.275-0.663-2.303-1.576-3.078-2.584   c-1.559-2.007-2.07-4.472-1.868-6.461c0.191-2.07,1.063-3.875,2.262-5.217c1.203-1.35,2.749-2.293,4.47-2.751   c0.43-0.115,0.871-0.194,1.317-0.246c0.217-0.022,0.441-0.043,0.736-0.053c0.395-0.015,0.219,0.004,0.596,0.003   c0.511,0.027,1.037,0.056,1.585,0.085c1.096,0.054,2.282,0.1,3.617,0.131c2.67,0.063,5.938,0.068,10.29-0.041   c0.213,0.164-2.733,0.483,0.62,0.487c7.768-0.126,2.029-0.706,4.456-1.087c-5.98,0.213-8.763,0.004-12.233-0.429l1.596-0.278   c0.242,0.145,3.997,0.152,5.103,0.292l0.967-0.567c-0.446,0.627,5.562,1.105,10.284,0.871c-4.772-0.455-3.483-0.431-4.781-1.146   c6.64-0.677,7.493,0.665,14.935-0.052c-0.558,0.202-7.055,0.352-1.441,0.506c4.648,0.027,4.028-0.461,7.146-0.617   c-3.511,0.522-2.609,0.911-6.414,1.531c-8.258,0.066-3.331-0.007-11.403,0.221l6.833,0.442c-6.997,0.085-5.088,0.598-5.664,0.798   c11.948,0.532,9.004-0.794,16.692-0.657c3.706-0.358-7.201-0.076-1.404-0.451c7.188,0.076,1.639-0.341,9.708-0.568l-1.351,0.24   c2.466,0.311,4.905-0.072,7.758-0.125c3.139-0.158-3.554-1.816,9.352-1.852c-0.632,0.146-0.864,0.238-0.864,0.299l-12.589,4.391   c13.076-0.011,28.144,0.111,43.286,0.405c3.566,0.858-10.808,0.708-9.881,1.095l-6.907-0.176c0.387-0.364,14.47-0.112,8.233-0.755   c-12.196,0.261-17.73-0.157-29.3,0.593c3.594,0.86,15.238-0.153,22.765,0.512c-3.16-0.056-5.828,0.039-8.418,0.162   c7.068,0.113,14.631,0.233,22.672,0.361l1.807-0.208c-5.419-0.097-9.168-0.17-9.652-0.201c7.185,0.075,13.246-0.401,13.723-1.03   l-1.276-0.022l2.596-0.196C159.85,250.043,161.536,250.083,163.212,250.123z M430.172,221.767c-0.352-0.267-0.645-0.46-0.887-0.577   C429.537,221.311,429.371,221.061,430.172,221.767z M73.192,259.765c-4.792-0.058-9.604-0.117-14.369-0.175l-1.784-0.024   l-0.891-0.012l-0.445-0.006c-0.11-0.004-0.213-0.008-0.318-0.02c-0.836-0.084-1.62-0.479-2.188-1.08   c-0.569-0.59-0.911-1.409-0.949-2.171c-0.053-0.857,0.189-1.625,0.66-2.271c-0.984,1.06-1.162,2.788-0.487,4.069   c0.652,1.318,2.017,2.114,3.315,2.216c2.999,0.263,5.151,0.496,5.917,0.689c0.766,0.194,0.145,0.349-2.4,0.452   c-0.637,0.02-1.394,0.042-2.279,0.069c-0.447,0.007-0.927,0.015-1.441,0.022c-0.561-0.005-1.162-0.104-1.765-0.317   c-1.198-0.426-2.422-1.368-3.119-2.822c-0.696-1.431-0.797-3.394,0.163-5.103c0,0,0.225-0.458,0.536-0.866   c0.306-0.411,0.689-0.759,0.689-0.759c-0.809,0.626-1.604,1.646-1.947,2.983c-0.352,1.319-0.212,2.939,0.61,4.325   c0.8,1.381,2.279,2.468,3.975,2.747c0.405,0.075,0.885,0.092,1.242,0.083l1.111-0.01c0.741-0.01,1.481-0.02,2.217-0.029   c2.379-0.22,7.409-0.735,11.822-1.213c2.206-0.249,4.258-0.479,5.75-0.647c1.49-0.18,2.419-0.308,2.377-0.343   c-1.686-0.348-4.143,0.031-7.207-0.074L73.192,259.765z M80.006,261.849c5.432,0.139,4.195-0.137,5.038-0.385   c-1.912,0.031-3.82,0.063-5.708,0.094C80.058,261.621,80.414,261.709,80.006,261.849z M84.719,261.217   c-0.61-0.006-1.131-0.018-1.404-0.051L84.719,261.217z M116.607,251.098c-0.242,0.006-0.329,0.009-0.558,0.015   c1.283,0.019,2.569,0.038,3.911,0.058C119.439,251.132,118.448,251.101,116.607,251.098z M105.582,250.49l-1.289,0.454   c1.196,0.017,2.417,0.035,3.666,0.052C107.547,250.791,107.116,250.612,105.582,250.49z M70.148,248.997   c-2.234,0.545-9.717,0.57-10.176,1.199c-0.477,0.162,1.097,0.223,2.863,0.275c1.971,0.017,4.075,0.034,6.306,0.053   c0.078-0.092,0.521-0.177,1.261-0.259c-2.203-0.079-3.675-0.235-2.783-0.622c5.665,0.843,5.076-0.6,11.198-0.384   C80.766,248.815,72.004,248.819,70.148,248.997z M407.244,297.474c-0.162,0.084-0.685,0.407-1.402,0.877l2.83-3.271   c5.536-5.343,10.534-9.062,14.881-14.508c2.43-2.154,3.949-3.089,5.361-4.021c-1.139,1.104-2.212,2.13-3.123,2.967   C412.867,294.053,417.784,285.829,407.244,297.474z M407.722,260.256c0.794-0.039,1.078-0.143,1.078-0.143   c-17.19,1.154-31.345,1.49-40.612,1.445c1.797,0.457,10.11,0.813,14.059,1.002l-3.499,0.521l-2.184-0.41l-6.073,0.474   c1.697,0.351,6.603,0.278,9.881,0.548c0.285-0.1,10.783-0.709,13.717-1.029l-8.388-0.361c2.266,0.146,13.393,0.025,17.805-0.107   c0.087-0.262-7.518-0.665-8.475-0.098c-0.904-0.387,7.861-0.391,2.317-0.807c6.569-0.414,17.021-0.068,21.87,0.123l0.821,0.652   c5.311,0.254,3.691-0.785,9.473-0.408c-3.621,0.063-3.312,0.242-2.912,0.41c0.413,0.17,0.925,0.328-1.626,0.354   c1.571,0.246-0.028,0.689,4.615,0.641c2.34-0.432,3.617-0.297,4.577-0.148c1.026,0.147,1.754,0.309,4.45-0.072   c0.863,0.121,0.121,0.239-0.451,0.343c-0.582,0.104-1.013,0.191,0.178,0.255c-0.164,0.153-0.437,0.408-0.776,0.725   c-1.302,1.622-1.889,2.484-1.979,2.882c-0.103,0.408,0.282,0.36,0.669,0.419c1.479-1.399,2.362-2.376,2.932-3.104   c0.575-0.732,0.854-1.229,1.242-1.786c-1.313,0.126-2.552,0.211-3.984,0.158c1.555-0.146,3.109-0.293,4.31-0.293   c-0.654,1.023-1.458,2.196-2.41,3.518c1.626-1.411,2.702-2.465,3.446-3.271c-1.341,1.43-2.291,2.605-3.048,3.673   c-0.433,0.606-0.875,1.199-1.313,1.764c2.897-2.892,5.586-5.569,7.55-7.434c-1.409-0.043-2.332-0.107-2.521-0.207l1.591-0.305   c-1.895-0.28-6.5-0.061-8.548,0.163c-3.098,0.016-6.229,0.131-8.646,0.191c-2.46,0.062-4.129,0.068-4.757-0.129l2.153-0.279   C417.275,260.213,416.497,260.252,407.722,260.256z M179.05,259.562c4.227,1.116,8.887,2.104,28.612,1.908l-1.552,0.076   c9.94,0.701,19.381-0.926,31.475-0.148c-5.869,0.422-5.553,0.383-12.032,1.346l6.296-0.315c-1.745,0.608,4.536,0.294,9.156,0.322   l-4.078,0.724c-2.773-0.209-9.962-0.283-9.751-0.119c1.574-0.08-9.491-0.912-15.502-0.702c0.62,0.489,13.312,0.292,7.644,1.092   c4.995-0.335,5.615,0.153,10.836-0.019c-5.007,0.336-1.24,0.668-4.967,1.024l8.562-0.167c0.223,0.164-12.469,0.363-5.454,0.965   c3.43-0.256,12.589,0.066,12.753-0.461l0.211,0.162c6.417,0.113,2.823-0.747,10.702-0.446c0.093-0.265-1.41-0.448-4.232-0.394   c-2.386,0.117-2.751,0.48-7.666,0.554c-2.203-0.413,5.927,0.052,2.516-0.646c-1.695-0.347-12.974,0.3-9.379-0.483l6.404,0.113   c0.165-0.529,4.803-0.498,4.673-0.924c3.917-0.195,7.613,0.4,11.613-0.06c1.661-0.341-1.239-0.976,5.379-0.7   c5.172,0.781,20.41,0.629,26.117,0.518l4.995-0.336c-0.425-0.324-9.543,0.043-6.336-0.377l7.789-0.127l-0.601,0.203   c2.581,0.045,5.221-0.174,7.575-0.289c-2.426,0.38-8.04,0.227-6.925,0.777c3.656,0.107,4.214,0.313,7.579,0.207   c-0.734,0.039-1.366,0.092-1.273,0.17c7.402,0.238,7.148-0.615,9.004-0.795c7.443-0.715-7.501-0.664-6.55-1.23l21.729-0.303   c-1.855,0.18-3.724,0.357-3.023,0.582c5.329,0.254,0.12,0.428,7.604,0.4c-0.533-0.752,9.423-0.469,14.709-0.902   c2.47,0.308,2.978,0.369-2.423,0.379c0.619,0.488,7.87,0.301,10.447,0.344c1.494-0.121,4.041-0.191,5.655-0.301   c-2.163-0.242-1.239-0.549,3.442-0.756l0.272-0.104c-7.675-0.133-19.604-0.666-24.416-0.166l1.36-0.242   c-8.884-0.422-19.332,0.877-23.428-0.045c0.378-0.365-1.785-0.084-1.63-0.611l-6.541,0.412l1.359-0.24l-11.126,0.119l0.294-0.098   c-5.288,0.491-9.431,0.877-12.741,1.186c-0.013,0.229,0.332,0.301-1.432,0.47c-1.77,0.114-3.11,0.132-4.307,0.101   c-0.01,0.002-0.01,0.002-0.01,0.004v-0.004c-2.729-0.066-4.549-0.396-7.91-0.531l10.346-0.057c0.843-0.391-0.037-0.797-5.106-1.07   c2.073-0.014,2.94-0.318,0.375-0.363c-0.282,0.102-6.779,0.249-4.304,0.561c-9.828,0.143-25.74-0.883-40.662-0.141   c10.721-0.447-8.592-0.523,3.309-0.684c-8.307-0.625-7.148,0.615-15.616,0.518c-0.722-0.225,4.61,0.029,6.556-0.414   c-14.08-0.25-23.756,1.01-37.377,0.82l-0.583-0.488C184.891,259.422,182.028,259.49,179.05,259.562z M152.105,260.17   c-2.621,0.055-5.28,0.11-7.982,0.168c0.264,0.005,0.508,0.009,0.784,0.014l-7.876,0.393c4.84,0.19,8.028,0.727,1.255,0.976   c0.57-0.202-1.41-0.448,0.945-0.566c-4.539-0.292-14.498-0.575-11.901,0.161c8.723-0.696,2.033,0.938,8.887,0.421   c-3.678,0.479-7.322,0.264-10.795,0.478c3.616-0.4-0.843-0.909-6.274-1.101c-2.364,0.118-8.763,0.005-12.691,0.2   c1.4,0.449-2.021,0.707,4.381,0.82c-2.349,0.119-5.983,0.213-10.055-0.02c1.615-0.076,4.438-0.133,4.242-0.295   c-2.627-0.414-5.705-0.396-7.402-0.573c-1.354,0.024-2.721,0.049-4.05,0.072c0.396,0.04,0.74,0.091,0.985,0.155l-4.499,0.396   c5.992-0.211,2.77,0.209,2.692,0.473c0.161-0.527-3.857-0.068-5.909-0.051l4.456,0.557c-2.153,0.279-7.604-0.402-6.479,0.148   c9.454,0.221,13.088,0.127,21.637-0.039l-3.471-0.434c9.646-0.306,5.949,0.742,16.772,0.722c4.499-0.396,16.277-0.027,16.5-0.819   c-1.357,0.242,6.74,0.705,10.448,0.346c4.1-0.723,16.497-0.82,12.741-1.15c-3.349-0.01-7.857,0.389-10.55-0.082l6.498-0.151   l-4.264-0.394C153.332,261.135,153.118,260.75,152.105,260.17z M89.021,256.27c0.071,0.003,0.164,0.007,0.251,0.01   c-0.096-0.001-0.189-0.001-0.279-0.002L89.021,256.27z" fill="#202020"/><path d="M402.826,314.739c1.194-1.448,4.481-4.694,3.568-4.329C406.775,310.633,400.604,316.293,402.826,314.739z" fill="#202020"/><path d="M407.029,311.127c0.157-0.302-0.117-0.257,1.338-1.733l-3.96,4.112L407.029,311.127z" fill="#202020"/><path d="M413.182,309.092c1.857-2.307,3.05-3.752,6.337-6.999c1.962-0.491-5.144,5.554-5.938,7.721   c6.057-5.919,7.253-8.399,12.116-13.387C422.949,298.56,412.803,308.353,413.182,309.092z" fill="#202020"/><polygon fill="#202020" points="411.451,312.679 414.615,309.183 414.244,309.469 411.077,312.968  "/><path d="M410.281,302.965c0.53-0.07,2.379-2.371,3.437-3.54C412.797,300.315,411.47,301.521,410.281,302.965z" fill="#202020"/><path d="M392.686,190.962c0,0-6.406-6.295-12.812-12.59l-1.2-1.179l-0.597-0.586l-0.297-0.292l-0.588,0.516   c-0.14,0.099-0.013,0.016,0.001,0.031c0.024,0.008-0.083-0.02-0.059-0.014c0,0.005,0.031,0.01,0.039,0.04   c-0.002,0.042-0.115,0.167,0.039,0.046l0.072-0.051l0.036-0.025l0.009-0.006c0.093-0.074-0.115,0.093-0.096,0.076l-0.003-0.002   l-0.022-0.024c-0.059-0.064-0.063-0.079-0.064-0.082c0.009,0.011,0.022,0.075,0.02,0.076c-0.001,0.005,0.003-0.031,0.011-0.052   c0.021-0.046-0.008,0.007-0.009,0.005c0.039-0.087-0.021,0.104-0.003,0.036c0-0.02-0.02-0.069-0.018-0.063   c0.002,0.003,0.012,0.021,0.044,0.058c0.009-0.001,0.046,0.077,0.056,0.032c-0.226,0.188-0.026-0.054-0.074-0.037   c-0.12-0.065,0.08,0.01,0.016-0.012c-0.019,0-0.072,0.021-0.058,0.016c0.008-0.005,0.033-0.02,0.081-0.064l0.021-0.019l0.009-0.009   l0.002-0.002c0.979-0.975,0.274-0.267,0.495-0.483l0.006,0.006l0.023,0.023l0.188,0.185l0.378,0.373   C382.39,180.866,386.957,185.345,392.686,190.962z" fill="#202020"/><path d="M378.704,257.457c9.646-0.306,13.931-0.865,23.76-1.008c-12.924-0.654-17.07,1.022-27.921,0.352   L378.704,257.457z" fill="#202020"/><path d="M382.107,254.866c1.599,0.612-7.442,0.717-6.042,1.166c6.5-0.149,3.027-0.583,8.927-0.53L382.107,254.866z" fill="#202020"/><path d="M425.147,264.98c0,0-0.396,0.079-0.792,0.158c-0.73,0.08-1.462,0.16-1.462,0.16s0.589-0.029,1.177-0.059   c0.136-0.007,0.271-0.015,0.398-0.021c0.067-0.007,0.131-0.013,0.185-0.019c0.108-0.011,0.181-0.019,0.181-0.019L425.147,264.98z" fill="#202020"/><polygon fill="#202020" points="338.145,255.409 339.21,255.271 334.373,255.077  "/><path d="M340.277,255.13l-1.066,0.141L340.277,255.13z" fill="#202020"/><path d="M422.059,266.293c0,0,1.087,0.032,2.174,0.064l0.203,0.007l0.07,0.006l0.135,0.012   c0.086,0.008,0.166,0.015,0.235,0.021c0.137,0.012,0.227,0.021,0.227,0.021c-0.021,0,0.849-0.281,0.87-0.281   c0,0-0.61,0.037-1.22,0.074l-0.221,0.015c-0.143,0.005-0.282,0.009-0.417,0.014c-0.381,0.009-0.736,0.017-1.041,0.023   C422.465,266.283,422.059,266.293,422.059,266.293z" fill="#202020"/><path d="M383.69,263.01l3.889-0.195C386.807,262.851,381.487,262.599,383.69,263.01z" fill="#202020"/><polygon fill="#202020" points="308.606,255.149 303.874,255.384 304.358,255.445 309.074,255.21  "/><path d="M353.25,264.697c2.687,0.47-7.759,0.127-2.231,0.543C355.937,265.167,353.941,264.922,353.25,264.697z" fill="#202020"/><path d="M296.159,261.508c-0.639,0-1.311,0.016-1.958,0.068C294.973,261.549,295.62,261.526,296.159,261.508z" fill="#202020"/><path d="M296.159,261.508c2.061,0,4.121,0.18,5.534,0.043C299.124,261.338,298.189,261.418,296.159,261.508z" fill="#202020"/><path d="M272.552,261.617l1.868,0.033c-1.909,0.232-1.004,0.197,0.7,0.012c1.979-0.017,1.868-0.166,2.104-0.268   c0.396-0.059,0.79-0.118,1.218-0.182c-0.609,0.063-1.158,0.121-1.623,0.17C273.751,261.379,271.879,261.401,272.552,261.617z" fill="#202020"/><path d="M184.854,253.691c6.9,0.175,8.685,0.26,8.31,0.625c6.55,0.116,5.534-0.512,9.485-0.658   C195.237,253.728,193.722,253.56,184.854,253.691z" fill="#202020"/><path d="M202.649,253.657c0.831-0.009,1.624-0.019,2.587-0.029C204.157,253.617,203.358,253.632,202.649,253.657z" fill="#202020"/><polygon fill="#202020" points="300.144,265.608 295.856,266.167 297.43,266.09  "/><path d="M174.613,253.507c1.28,0.023,3.331,0.007,4.338,0.132C179.32,253.273,173.337,253.485,174.613,253.507z" fill="#202020"/><path d="M201.226,260.666c0.7,0.223,5.116,0.09,6.913,0.176C205.561,260.795,203.461,260.121,201.226,260.666z" fill="#202020"/><path d="M154.817,255.013c1.28,0.023,3.247,0.269,2.395,0.571C159.071,255.406,161.587,254.761,154.817,255.013z" fill="#202020"/><polygon fill="#202020" points="188.615,260.599 189.601,260.724 194.323,260.49  "/><path d="M205.459,265.992c5.311-0.436-8.425-1.051,0.722-1.42c-11.799-0.457,0.905,0.617-7.799,0.546   C203.479,265.265,205.976,265.816,205.459,265.992z" fill="#202020"/><path d="M198.382,265.118c-0.741-0.022-1.543-0.036-2.414-0.038C196.932,265.095,197.71,265.107,198.382,265.118z" fill="#202020"/><path d="M123.636,262.361c0.771-0.047,1.298-0.096,1.785-0.148C124.813,262.25,124.234,262.295,123.636,262.361z" fill="#202020"/><path d="M170.585,265.478l7.96-0.654c-5.317,0.436-18.693,0.408-17.86,1.06c4.332,0.132,9.543-0.04,11.685-0.321   L170.585,265.478z" fill="#202020"/><path d="M79.216,253.667l3.439-0.258l-4.294-0.076C79.59,253.431,77.365,253.909,79.216,253.667z" fill="#202020"/><path d="M77.53,253.32l0.831,0.014C78.177,253.317,77.914,253.311,77.53,253.32z" fill="#202020"/><path d="M138.692,262.045c2.572,0.047,4.629,0.029,6.975-0.088C144.694,261.834,138.286,261.719,138.692,262.045z" fill="#202020"/><path d="M55.688,255.999c0,0,0.001-0.01,0.003-0.029c0-0.013,0.001-0.029,0.003-0.047v-0.033v-1.289h0.001h0.003   l0.006,0h0.011l0.023,0l0.047-0.001l0.098-0.002c0.532-0.01,1.242-0.024,1.952-0.039c1.419-0.028,2.838-0.056,2.838-0.056   s-1.548,0.012-3.097,0.024c-0.387,0.003-0.774,0.006-1.137,0.009c-0.182,0.001-0.357,0.002-0.523,0.004l-0.123,0.001l-0.06,0h-0.03   l-0.007,0l-0.001,1.349v0.002l-0.001,0.046c-0.006,0.095-0.012,0.088-0.011,0.093L55.688,255.999z" fill="#202020"/><polygon fill="#202020" points="67.173,258.492 68.152,258.615 72.859,258.382 71.864,258.26  "/><path d="M63.153,266.324c3.848,0.068,6.854-0.516,5.847-0.64l-7.461,0.026c1.896,0.512,2.07-0.016,6.396,0.113   L63.153,266.324z" fill="#202020"/><path d="M263.781,257.535c-1.667,0.342-9.829,0.145-10.256-0.181c1.097-0.142,5.522-0.276,2.742-0.483l-6.458,0.84   c-8.589-0.523,6.529-1.104,10.771-1.4c-8.75-0.108-11.344,0.444-20.652,0.441c2.746,0.074,4.48,0.284,5.931,0.465   c0.316,0.59-8.356,0.328-14.557,0.375c3.947,0.258,1.664,0.474-1.211,0.705c-0.518,0.02-0.862,0.053-1.106,0.092   c-0.334,0.029-0.65,0.056-0.976,0.084l0.744-0.002c-0.053,0.066,0.112,0.146,0.647,0.256c5.203-0.172,9.181,0.322,12.531,0.33   c-3.309-0.961,11.406-0.223,15.617-0.518l4.861-0.096l1.819-0.002c0.365,0.105-0.152,0.238-2.926,0.428   c2.315-0.189,10.033-0.123,9.32-0.432l17.615-0.014c0.549,0.039,1.098,0.088,1.503,0.158c0.61-0.061,0.713-0.111,0.633-0.16   l76.747-0.061c-3.786-0.076-7.062-0.295-10.966-0.402c5.859-0.638-6.401-0.115-4.682-0.719c2.634-0.219,6.488-0.15,8.784-0.003   c0.855-0.305-2.417-0.575-2.039-0.939c-9.68-0.383-11.16,1.075-20.623,0.854c0.374-0.365,3.3-0.685-2.895-0.636l1.574-0.079   c-9.919,0.409-7.728-0.826-13.972,0.175l0.164-0.527c-4.499,0.397-13.252,0.4-18.185,0.472l0.294-0.101   c-13.838,0.603-7.768,0.128-23.307,0.38l7.151-0.615c-5.36-0.254-6.569,0.415-10.418,0.345c0.276-0.101-0.616-0.487,3.019-0.583   l-18.854,0.938C257.668,257.321,263.081,257.31,263.781,257.535z" fill="#202020"/><path d="M239.928,256.752c-0.998-0.029-2.131-0.041-3.47-0.02C237.75,256.739,238.863,256.745,239.928,256.752z" fill="#202020"/><path d="M372.512,258.355l-5.392,0.006C368.79,258.392,370.531,258.402,372.512,258.355z" fill="#202020"/><path d="M212.903,257.902c3.269,0.273-2.448,0.382-3.018,0.584l11.709-0.01c-0.053-0.203,1.106-0.43,0.871-0.615   L212.903,257.902z" fill="#202020"/><path d="M224.985,258.859c0.396-0.141,1.636-0.268,3.024-0.387l-6.414,0.004   C221.635,258.629,222.354,258.767,224.985,258.859z" fill="#202020"/><polygon fill="#202020" points="223.745,248.019 225.818,248.001 228.954,247.844  "/><path d="M256.165,248.912c-2.476-0.308-7.173-0.074-8.744,0.004C252.834,248.906,250.489,249.024,256.165,248.912z" fill="#202020"/><polygon fill="#202020" points="249.475,245.612 254.693,245.438 254.207,245.377  "/><path d="M412.363,256.281c0.854-0.011,1.686-0.022,2.55-0.034C413.744,256.244,412.982,256.259,412.363,256.281z" fill="#202020"/><path d="M367.588,256.783c12.447,0.592-8.155,0.492-4.245,1.25l6.773-0.25l-0.576,0.203l8.261-0.066   c-1.694-0.349-2.969-0.37-2.6-0.736c11.027,0.143,3.477,0.434,11.566,0.895l12.326-0.066l-0.997,0.109   c1.038-0.008,1.496-0.053,1.853-0.113l55.64-0.227c6.587-0.146,4.2-0.31,1.494-0.505c-2.755-0.195-5.752-0.422-1.636-0.69   c-7.379-0.031-16.551-0.07-24.035-0.102c-1.853,0.005-3.601,0.011-5.189,0.016c-0.729,0.009-1.422,0.018-2.072,0.026   c-0.425,0.015-0.821,0.028-1.188,0.041c-1.462,0.066-2.415,0.179-2.601,0.361c0.294-0.102,0.874-0.303-0.901-0.389l-5.066,0.6   l4.831,0.191c-5.095,0.598-21.545,0.465-24.52,0.094c9.354-0.203,4.661-0.924,17.693-0.532c-0.586-0.185-2.972-0.51-0.037-0.611   C397.093,256.492,383.406,256.16,367.588,256.783z" fill="#202020"/><path d="M393.963,193.046l0.132,0.039C393.875,192.915,393.793,192.87,393.963,193.046z" fill="#202020"/><path d="M397.523,196.734l5.768,4.757l-8.245-8.165l-0.95-0.242c0.814,0.635,3.871,3.333,4.848,4.586   L397.523,196.734z" fill="#202020"/><path d="M409.707,207.297c-4.389-4.087-4.575-3.439-2.454-0.938c-4.085-3.697-1.604-2.501-4.725-4.74   c-0.214,0.389,4.76,5.008,5.917,6.055L409.707,207.297z" fill="#202020"/><polygon fill="#202020" points="445.386,243.415 442.975,241.35 447.927,246.394  "/><path d="M442.975,241.35l-4.96-5.053c0.175,0.432,0.341,0.848,1.005,1.687L442.975,241.35z" fill="#202020"/><path d="M428.993,227.036c-1.202-1.265-2.544-2.653-4.192-4.325L428.993,227.036z" fill="#202020"/><path d="M432.22,230.475l-0.044-0.153l-3.183-3.286C430.148,228.265,431.183,229.369,432.22,230.475z" fill="#202020"/><path d="M438.015,236.298c-0.213-0.505-0.467-1.059-1.653-2.451c-0.296-0.348-0.651-0.749-1.078-1.214   c-0.277-0.304-0.596-0.652-0.962-1.053c-0.63-0.674-1.45-1.502-2.524-2.536l0.379,1.278L438.015,236.298z" fill="#202020"/><polygon fill="#202020" points="287.426,246.235 292.139,246.001 291.64,245.937 286.93,246.171  "/><path d="M314.619,246.612c1.164-0.073,2.048-0.149,2.851-0.227C316.242,246.43,315.267,246.499,314.619,246.612z" fill="#202020"/><path d="M334.834,243.789c5.543,0.416-7.647,0.55,2.618,0.734c0.904,0.387-3.907,0.886-8.741,0.693   c0.384-0.364,4.71-0.233,1.738-0.605c-3.21,0.421-4.431,0.134-3.313,0.683c-5.4,0.342-6.002,0.732-9.667,1.09   c6.528-0.242,20.236,0.322,28.521-0.383c4.567-0.66,1.797-1.561,1.815-2.514C347.119,243.264,335.28,243.158,334.834,243.789z" fill="#202020"/><path d="M326.112,242.838c-2.565-0.047-3.35-0.009-4.924,0.07C321.613,243.235,324.038,242.853,326.112,242.838z" fill="#202020"/><path d="M385.071,250.015c0.489-0.136,5.131-0.304,4.133-0.538l-7.036,0.171   C383.819,249.671,384.401,249.836,385.071,250.015z" fill="#202020"/><path d="M379.081,249.721l3.086-0.073C381.396,249.636,380.441,249.655,379.081,249.721z" fill="#202020"/><path d="M385.405,250.099c-0.111-0.028-0.211-0.053-0.334-0.084C384.971,250.043,384.99,250.073,385.405,250.099z" fill="#202020"/><path d="M417.087,214.793c0.255-0.115-2.072-2.222-3.24-3.28C414.736,212.434,415.946,213.765,417.087,214.793z" fill="#202020"/><path d="M410.334,210.564l1.812,2.105C411.541,211.889,411.23,211.491,410.334,210.564z" fill="#202020"/><path d="M445.573,235.698c0.093,0.021,0.269,0.135,0.491,0.302C445.847,235.829,445.68,235.724,445.573,235.698z" fill="#202020"/><path d="M446.065,236.001c1.492,1.185,5.386,5.557,7.105,6.808l-0.26-0.117l2.904,2.626   C453.201,242.746,447.79,237.278,446.065,236.001z" fill="#202020"/></g></svg>